<mxfile host="app.diagrams.net" modified="2023-11-26T21:48:50.733Z" agent="Mozilla/5.0 (Windows NT 10.0; Win64; x64) AppleWebKit/537.36 (KHTML, like Gecko) Chrome/119.0.0.0 Safari/537.36" etag="bXwbdjJR3lXGXe7QXcSK" version="22.1.3" type="github">
  <diagram name="Page-1" id="ic3QxxJDQ8-wgufNTwQT">
    <mxGraphModel dx="2647" dy="1553" grid="1" gridSize="10" guides="1" tooltips="1" connect="1" arrows="1" fold="1" page="1" pageScale="1" pageWidth="827" pageHeight="1169" math="0" shadow="0">
      <root>
        <mxCell id="0" />
        <mxCell id="1" parent="0" />
        <mxCell id="sFR_5gGPYLs7CGGtgTTj-65" value="Users" style="swimlane;fontStyle=0;childLayout=stackLayout;horizontal=1;startSize=26;fillColor=none;horizontalStack=0;resizeParent=1;resizeParentMax=0;resizeLast=0;collapsible=1;marginBottom=0;whiteSpace=wrap;html=1;" vertex="1" parent="1">
          <mxGeometry x="1259" y="359" width="140" height="130" as="geometry" />
        </mxCell>
        <mxCell id="sFR_5gGPYLs7CGGtgTTj-66" value="- id: int" style="text;strokeColor=none;fillColor=none;align=left;verticalAlign=top;spacingLeft=4;spacingRight=4;overflow=hidden;rotatable=0;points=[[0,0.5],[1,0.5]];portConstraint=eastwest;whiteSpace=wrap;html=1;" vertex="1" parent="sFR_5gGPYLs7CGGtgTTj-65">
          <mxGeometry y="26" width="140" height="26" as="geometry" />
        </mxCell>
        <mxCell id="sFR_5gGPYLs7CGGtgTTj-67" value="- nom: string" style="text;strokeColor=none;fillColor=none;align=left;verticalAlign=top;spacingLeft=4;spacingRight=4;overflow=hidden;rotatable=0;points=[[0,0.5],[1,0.5]];portConstraint=eastwest;whiteSpace=wrap;html=1;" vertex="1" parent="sFR_5gGPYLs7CGGtgTTj-65">
          <mxGeometry y="52" width="140" height="26" as="geometry" />
        </mxCell>
        <mxCell id="sFR_5gGPYLs7CGGtgTTj-68" value="-&amp;nbsp;email: string" style="text;strokeColor=none;fillColor=none;align=left;verticalAlign=top;spacingLeft=4;spacingRight=4;overflow=hidden;rotatable=0;points=[[0,0.5],[1,0.5]];portConstraint=eastwest;whiteSpace=wrap;html=1;" vertex="1" parent="sFR_5gGPYLs7CGGtgTTj-65">
          <mxGeometry y="78" width="140" height="26" as="geometry" />
        </mxCell>
        <mxCell id="sFR_5gGPYLs7CGGtgTTj-69" value="-&amp;nbsp;password: string" style="text;strokeColor=none;fillColor=none;align=left;verticalAlign=top;spacingLeft=4;spacingRight=4;overflow=hidden;rotatable=0;points=[[0,0.5],[1,0.5]];portConstraint=eastwest;whiteSpace=wrap;html=1;" vertex="1" parent="sFR_5gGPYLs7CGGtgTTj-65">
          <mxGeometry y="104" width="140" height="26" as="geometry" />
        </mxCell>
        <mxCell id="sFR_5gGPYLs7CGGtgTTj-71" value="Commentaire" style="swimlane;fontStyle=0;childLayout=stackLayout;horizontal=1;startSize=26;fillColor=none;horizontalStack=0;resizeParent=1;resizeParentMax=0;resizeLast=0;collapsible=1;marginBottom=0;whiteSpace=wrap;html=1;" vertex="1" parent="1">
          <mxGeometry x="1880" y="558" width="140" height="130" as="geometry" />
        </mxCell>
        <mxCell id="sFR_5gGPYLs7CGGtgTTj-72" value="- id: int" style="text;strokeColor=none;fillColor=none;align=left;verticalAlign=top;spacingLeft=4;spacingRight=4;overflow=hidden;rotatable=0;points=[[0,0.5],[1,0.5]];portConstraint=eastwest;whiteSpace=wrap;html=1;" vertex="1" parent="sFR_5gGPYLs7CGGtgTTj-71">
          <mxGeometry y="26" width="140" height="26" as="geometry" />
        </mxCell>
        <mxCell id="sFR_5gGPYLs7CGGtgTTj-73" value="- username :string" style="text;strokeColor=none;fillColor=none;align=left;verticalAlign=top;spacingLeft=4;spacingRight=4;overflow=hidden;rotatable=0;points=[[0,0.5],[1,0.5]];portConstraint=eastwest;whiteSpace=wrap;html=1;" vertex="1" parent="sFR_5gGPYLs7CGGtgTTj-71">
          <mxGeometry y="52" width="140" height="26" as="geometry" />
        </mxCell>
        <mxCell id="sFR_5gGPYLs7CGGtgTTj-74" value="-&amp;nbsp;description: string" style="text;strokeColor=none;fillColor=none;align=left;verticalAlign=top;spacingLeft=4;spacingRight=4;overflow=hidden;rotatable=0;points=[[0,0.5],[1,0.5]];portConstraint=eastwest;whiteSpace=wrap;html=1;" vertex="1" parent="sFR_5gGPYLs7CGGtgTTj-71">
          <mxGeometry y="78" width="140" height="26" as="geometry" />
        </mxCell>
        <mxCell id="sFR_5gGPYLs7CGGtgTTj-75" value="-&amp;nbsp;date: string" style="text;strokeColor=none;fillColor=none;align=left;verticalAlign=top;spacingLeft=4;spacingRight=4;overflow=hidden;rotatable=0;points=[[0,0.5],[1,0.5]];portConstraint=eastwest;whiteSpace=wrap;html=1;" vertex="1" parent="sFR_5gGPYLs7CGGtgTTj-71">
          <mxGeometry y="104" width="140" height="26" as="geometry" />
        </mxCell>
        <mxCell id="sFR_5gGPYLs7CGGtgTTj-77" value="Films" style="swimlane;fontStyle=0;childLayout=stackLayout;horizontal=1;startSize=26;fillColor=none;horizontalStack=0;resizeParent=1;resizeParentMax=0;resizeLast=0;collapsible=1;marginBottom=0;whiteSpace=wrap;html=1;" vertex="1" parent="1">
          <mxGeometry x="1520" y="563" width="140" height="130" as="geometry" />
        </mxCell>
        <mxCell id="sFR_5gGPYLs7CGGtgTTj-78" value="- id: int" style="text;strokeColor=none;fillColor=none;align=left;verticalAlign=top;spacingLeft=4;spacingRight=4;overflow=hidden;rotatable=0;points=[[0,0.5],[1,0.5]];portConstraint=eastwest;whiteSpace=wrap;html=1;" vertex="1" parent="sFR_5gGPYLs7CGGtgTTj-77">
          <mxGeometry y="26" width="140" height="26" as="geometry" />
        </mxCell>
        <mxCell id="sFR_5gGPYLs7CGGtgTTj-79" value="- title: string" style="text;strokeColor=none;fillColor=none;align=left;verticalAlign=top;spacingLeft=4;spacingRight=4;overflow=hidden;rotatable=0;points=[[0,0.5],[1,0.5]];portConstraint=eastwest;whiteSpace=wrap;html=1;" vertex="1" parent="sFR_5gGPYLs7CGGtgTTj-77">
          <mxGeometry y="52" width="140" height="26" as="geometry" />
        </mxCell>
        <mxCell id="sFR_5gGPYLs7CGGtgTTj-80" value="- description: string" style="text;strokeColor=none;fillColor=none;align=left;verticalAlign=top;spacingLeft=4;spacingRight=4;overflow=hidden;rotatable=0;points=[[0,0.5],[1,0.5]];portConstraint=eastwest;whiteSpace=wrap;html=1;" vertex="1" parent="sFR_5gGPYLs7CGGtgTTj-77">
          <mxGeometry y="78" width="140" height="26" as="geometry" />
        </mxCell>
        <mxCell id="sFR_5gGPYLs7CGGtgTTj-81" value="- duration: int" style="text;strokeColor=none;fillColor=none;align=left;verticalAlign=top;spacingLeft=4;spacingRight=4;overflow=hidden;rotatable=0;points=[[0,0.5],[1,0.5]];portConstraint=eastwest;whiteSpace=wrap;html=1;" vertex="1" parent="sFR_5gGPYLs7CGGtgTTj-77">
          <mxGeometry y="104" width="140" height="26" as="geometry" />
        </mxCell>
        <mxCell id="sFR_5gGPYLs7CGGtgTTj-83" value="" style="endArrow=none;html=1;edgeStyle=orthogonalEdgeStyle;exitX=0.426;exitY=1.057;exitDx=0;exitDy=0;exitPerimeter=0;entryX=0;entryY=0.5;entryDx=0;entryDy=0;" edge="1" parent="1" source="sFR_5gGPYLs7CGGtgTTj-69">
          <mxGeometry relative="1" as="geometry">
            <mxPoint x="1320.2199999999998" y="515.156" as="sourcePoint" />
            <mxPoint x="1521" y="672" as="targetPoint" />
            <Array as="points">
              <mxPoint x="1320" y="491" />
              <mxPoint x="1320" y="522" />
              <mxPoint x="1321" y="522" />
              <mxPoint x="1321" y="672" />
            </Array>
          </mxGeometry>
        </mxCell>
        <mxCell id="sFR_5gGPYLs7CGGtgTTj-84" value="1" style="edgeLabel;resizable=0;html=1;align=left;verticalAlign=bottom;" connectable="0" vertex="1" parent="sFR_5gGPYLs7CGGtgTTj-83">
          <mxGeometry x="-1" relative="1" as="geometry">
            <mxPoint x="4" y="24" as="offset" />
          </mxGeometry>
        </mxCell>
        <mxCell id="sFR_5gGPYLs7CGGtgTTj-85" value="1.. *" style="edgeLabel;resizable=0;html=1;align=right;verticalAlign=bottom;" connectable="0" vertex="1" parent="sFR_5gGPYLs7CGGtgTTj-83">
          <mxGeometry x="1" relative="1" as="geometry">
            <mxPoint x="-8" y="-1" as="offset" />
          </mxGeometry>
        </mxCell>
        <mxCell id="sFR_5gGPYLs7CGGtgTTj-86" value="1.. *" style="edgeLabel;resizable=0;html=1;align=right;verticalAlign=bottom;" connectable="0" vertex="1" parent="sFR_5gGPYLs7CGGtgTTj-83">
          <mxGeometry x="1" relative="1" as="geometry">
            <mxPoint x="12" y="-281" as="offset" />
          </mxGeometry>
        </mxCell>
        <mxCell id="sFR_5gGPYLs7CGGtgTTj-87" value="1.. *" style="edgeLabel;resizable=0;html=1;align=right;verticalAlign=bottom;" connectable="0" vertex="1" parent="sFR_5gGPYLs7CGGtgTTj-83">
          <mxGeometry x="1" relative="1" as="geometry">
            <mxPoint x="-92" y="-281" as="offset" />
          </mxGeometry>
        </mxCell>
        <mxCell id="sFR_5gGPYLs7CGGtgTTj-95" value="" style="line;strokeWidth=1;fillColor=none;align=left;verticalAlign=middle;spacingTop=-1;spacingLeft=3;spacingRight=3;rotatable=0;labelPosition=right;points=[];portConstraint=eastwest;strokeColor=inherit;" vertex="1" parent="1">
          <mxGeometry x="1400" y="394" width="138" height="8" as="geometry" />
        </mxCell>
        <mxCell id="sFR_5gGPYLs7CGGtgTTj-100" value="user" style="shape=umlActor;verticalLabelPosition=bottom;verticalAlign=top;html=1;outlineConnect=0;rounded=0;labelBackgroundColor=none;" vertex="1" parent="1">
          <mxGeometry x="64" y="186" width="30" height="64" as="geometry" />
        </mxCell>
        <mxCell id="sFR_5gGPYLs7CGGtgTTj-101" value="systÃ¨me de gestion d&#39;un site web (Movie Mingle)" style="swimlane;startSize=50;rounded=0;labelBackgroundColor=none;" vertex="1" parent="1">
          <mxGeometry x="237" y="149" width="562" height="490" as="geometry" />
        </mxCell>
        <mxCell id="sFR_5gGPYLs7CGGtgTTj-102" value="creer un compte" style="ellipse;whiteSpace=wrap;html=1;align=center;newEdgeStyle={&quot;edgeStyle&quot;:&quot;entityRelationEdgeStyle&quot;,&quot;startArrow&quot;:&quot;none&quot;,&quot;endArrow&quot;:&quot;none&quot;,&quot;segment&quot;:10,&quot;curved&quot;:1,&quot;sourcePerimeterSpacing&quot;:0,&quot;targetPerimeterSpacing&quot;:0};treeFolding=1;treeMoving=1;rounded=0;labelBackgroundColor=none;" vertex="1" parent="sFR_5gGPYLs7CGGtgTTj-101">
          <mxGeometry x="201" y="74" width="121" height="60" as="geometry" />
        </mxCell>
        <mxCell id="sFR_5gGPYLs7CGGtgTTj-103" value="gerer son compte" style="ellipse;whiteSpace=wrap;html=1;align=center;newEdgeStyle={&quot;edgeStyle&quot;:&quot;entityRelationEdgeStyle&quot;,&quot;startArrow&quot;:&quot;none&quot;,&quot;endArrow&quot;:&quot;none&quot;,&quot;segment&quot;:10,&quot;curved&quot;:1,&quot;sourcePerimeterSpacing&quot;:0,&quot;targetPerimeterSpacing&quot;:0};treeFolding=1;treeMoving=1;rounded=0;labelBackgroundColor=none;" vertex="1" parent="sFR_5gGPYLs7CGGtgTTj-101">
          <mxGeometry x="102" y="200" width="230" height="50" as="geometry" />
        </mxCell>
        <mxCell id="sFR_5gGPYLs7CGGtgTTj-104" value="authentifier&amp;nbsp;" style="ellipse;whiteSpace=wrap;html=1;align=center;newEdgeStyle={&quot;edgeStyle&quot;:&quot;entityRelationEdgeStyle&quot;,&quot;startArrow&quot;:&quot;none&quot;,&quot;endArrow&quot;:&quot;none&quot;,&quot;segment&quot;:10,&quot;curved&quot;:1,&quot;sourcePerimeterSpacing&quot;:0,&quot;targetPerimeterSpacing&quot;:0};treeFolding=1;treeMoving=1;rounded=0;labelBackgroundColor=none;" vertex="1" parent="sFR_5gGPYLs7CGGtgTTj-101">
          <mxGeometry x="22" y="300" width="160" height="50" as="geometry" />
        </mxCell>
        <mxCell id="sFR_5gGPYLs7CGGtgTTj-105" value="favoriser une serie" style="ellipse;whiteSpace=wrap;html=1;align=center;newEdgeStyle={&quot;edgeStyle&quot;:&quot;entityRelationEdgeStyle&quot;,&quot;startArrow&quot;:&quot;none&quot;,&quot;endArrow&quot;:&quot;none&quot;,&quot;segment&quot;:10,&quot;curved&quot;:1,&quot;sourcePerimeterSpacing&quot;:0,&quot;targetPerimeterSpacing&quot;:0};treeFolding=1;treeMoving=1;rounded=0;labelBackgroundColor=none;" vertex="1" parent="sFR_5gGPYLs7CGGtgTTj-101">
          <mxGeometry x="322" y="290" width="137" height="50" as="geometry" />
        </mxCell>
        <mxCell id="sFR_5gGPYLs7CGGtgTTj-106" value="favoriser un film" style="ellipse;whiteSpace=wrap;html=1;align=center;newEdgeStyle={&quot;edgeStyle&quot;:&quot;entityRelationEdgeStyle&quot;,&quot;startArrow&quot;:&quot;none&quot;,&quot;endArrow&quot;:&quot;none&quot;,&quot;segment&quot;:10,&quot;curved&quot;:1,&quot;sourcePerimeterSpacing&quot;:0,&quot;targetPerimeterSpacing&quot;:0};treeFolding=1;treeMoving=1;rounded=0;labelBackgroundColor=none;" vertex="1" parent="sFR_5gGPYLs7CGGtgTTj-101">
          <mxGeometry x="399" y="200" width="137" height="50" as="geometry" />
        </mxCell>
        <mxCell id="sFR_5gGPYLs7CGGtgTTj-107" value="" style="endArrow=block;endSize=16;endFill=0;html=1;rounded=0;labelBackgroundColor=none;fontColor=default;" edge="1" parent="sFR_5gGPYLs7CGGtgTTj-101" source="sFR_5gGPYLs7CGGtgTTj-106">
          <mxGeometry width="160" relative="1" as="geometry">
            <mxPoint x="403" y="200" as="sourcePoint" />
            <mxPoint x="332" y="225" as="targetPoint" />
          </mxGeometry>
        </mxCell>
        <mxCell id="sFR_5gGPYLs7CGGtgTTj-108" value="" style="endArrow=block;endSize=16;endFill=0;html=1;rounded=0;entryX=1;entryY=1;entryDx=0;entryDy=0;labelBackgroundColor=none;fontColor=default;" edge="1" parent="sFR_5gGPYLs7CGGtgTTj-101" source="sFR_5gGPYLs7CGGtgTTj-105" target="sFR_5gGPYLs7CGGtgTTj-103">
          <mxGeometry width="160" relative="1" as="geometry">
            <mxPoint x="242" y="260" as="sourcePoint" />
            <mxPoint x="273" y="200" as="targetPoint" />
          </mxGeometry>
        </mxCell>
        <mxCell id="sFR_5gGPYLs7CGGtgTTj-109" value="&amp;lt;&amp;lt;include&amp;gt;&amp;gt;" style="html=1;verticalAlign=bottom;labelBackgroundColor=none;endArrow=open;endFill=0;dashed=1;rounded=0;exitX=0.359;exitY=1.124;exitDx=0;exitDy=0;exitPerimeter=0;fontColor=default;" edge="1" parent="sFR_5gGPYLs7CGGtgTTj-101" source="sFR_5gGPYLs7CGGtgTTj-103" target="sFR_5gGPYLs7CGGtgTTj-104">
          <mxGeometry width="160" relative="1" as="geometry">
            <mxPoint x="112" y="330" as="sourcePoint" />
            <mxPoint x="222" y="270" as="targetPoint" />
          </mxGeometry>
        </mxCell>
        <mxCell id="sFR_5gGPYLs7CGGtgTTj-110" value="suprimer son compte" style="ellipse;whiteSpace=wrap;html=1;align=center;newEdgeStyle={&quot;edgeStyle&quot;:&quot;entityRelationEdgeStyle&quot;,&quot;startArrow&quot;:&quot;none&quot;,&quot;endArrow&quot;:&quot;none&quot;,&quot;segment&quot;:10,&quot;curved&quot;:1,&quot;sourcePerimeterSpacing&quot;:0,&quot;targetPerimeterSpacing&quot;:0};treeFolding=1;treeMoving=1;rounded=0;labelBackgroundColor=none;" vertex="1" parent="sFR_5gGPYLs7CGGtgTTj-101">
          <mxGeometry x="389" y="80" width="131" height="50" as="geometry" />
        </mxCell>
        <mxCell id="sFR_5gGPYLs7CGGtgTTj-111" value="" style="endArrow=block;endSize=16;endFill=0;html=1;rounded=0;labelBackgroundColor=none;fontColor=default;" edge="1" parent="sFR_5gGPYLs7CGGtgTTj-101">
          <mxGeometry width="160" relative="1" as="geometry">
            <mxPoint x="389" y="105" as="sourcePoint" />
            <mxPoint x="322" y="105" as="targetPoint" />
          </mxGeometry>
        </mxCell>
        <mxCell id="sFR_5gGPYLs7CGGtgTTj-112" value="commenter et faire des likes" style="ellipse;whiteSpace=wrap;html=1;align=center;newEdgeStyle={&quot;edgeStyle&quot;:&quot;entityRelationEdgeStyle&quot;,&quot;startArrow&quot;:&quot;none&quot;,&quot;endArrow&quot;:&quot;none&quot;,&quot;segment&quot;:10,&quot;curved&quot;:1,&quot;sourcePerimeterSpacing&quot;:0,&quot;targetPerimeterSpacing&quot;:0};treeFolding=1;treeMoving=1;rounded=0;labelBackgroundColor=none;" vertex="1" parent="sFR_5gGPYLs7CGGtgTTj-101">
          <mxGeometry x="202" y="370" width="218" height="50" as="geometry" />
        </mxCell>
        <mxCell id="sFR_5gGPYLs7CGGtgTTj-113" value="" style="endArrow=block;endSize=16;endFill=0;html=1;rounded=0;entryX=1;entryY=1;entryDx=0;entryDy=0;labelBackgroundColor=none;fontColor=default;" edge="1" parent="sFR_5gGPYLs7CGGtgTTj-101">
          <mxGeometry width="160" relative="1" as="geometry">
            <mxPoint x="253" y="361" as="sourcePoint" />
            <mxPoint x="228" y="253" as="targetPoint" />
          </mxGeometry>
        </mxCell>
        <mxCell id="sFR_5gGPYLs7CGGtgTTj-114" value="" style="endArrow=none;html=1;rounded=0;entryX=0;entryY=0.5;entryDx=0;entryDy=0;labelBackgroundColor=none;fontColor=default;" edge="1" parent="1">
          <mxGeometry width="50" height="50" relative="1" as="geometry">
            <mxPoint x="99" y="225" as="sourcePoint" />
            <mxPoint x="434.9999999999977" y="254" as="targetPoint" />
          </mxGeometry>
        </mxCell>
        <mxCell id="sFR_5gGPYLs7CGGtgTTj-115" value="" style="endArrow=none;html=1;rounded=0;entryX=0;entryY=0.5;entryDx=0;entryDy=0;labelBackgroundColor=none;fontColor=default;" edge="1" parent="1" target="sFR_5gGPYLs7CGGtgTTj-103">
          <mxGeometry width="50" height="50" relative="1" as="geometry">
            <mxPoint x="98" y="225" as="sourcePoint" />
            <mxPoint x="347" y="439" as="targetPoint" />
          </mxGeometry>
        </mxCell>
        <mxCell id="sFR_5gGPYLs7CGGtgTTj-116" value="1" style="endArrow=open;html=1;endSize=12;startArrow=diamondThin;startSize=14;startFill=1;edgeStyle=orthogonalEdgeStyle;align=left;verticalAlign=bottom;rounded=0;entryX=-0.022;entryY=0.163;entryDx=0;entryDy=0;entryPerimeter=0;" edge="1" parent="1" target="sFR_5gGPYLs7CGGtgTTj-74">
          <mxGeometry x="-1" y="3" relative="1" as="geometry">
            <mxPoint x="1660" y="639" as="sourcePoint" />
            <mxPoint x="1820" y="639" as="targetPoint" />
          </mxGeometry>
        </mxCell>
        <mxCell id="sFR_5gGPYLs7CGGtgTTj-117" value="1" style="endArrow=open;html=1;endSize=12;startArrow=diamondThin;startSize=14;startFill=1;edgeStyle=orthogonalEdgeStyle;align=left;verticalAlign=bottom;rounded=0;entryX=0.407;entryY=0.012;entryDx=0;entryDy=0;entryPerimeter=0;" edge="1" parent="1" target="sFR_5gGPYLs7CGGtgTTj-71">
          <mxGeometry x="-1" y="3" relative="1" as="geometry">
            <mxPoint x="1679" y="399.06" as="sourcePoint" />
            <mxPoint x="1937" y="530" as="targetPoint" />
            <Array as="points">
              <mxPoint x="1937" y="399" />
            </Array>
          </mxGeometry>
        </mxCell>
        <mxCell id="sFR_5gGPYLs7CGGtgTTj-118" value="Series" style="swimlane;fontStyle=0;childLayout=stackLayout;horizontal=1;startSize=26;fillColor=none;horizontalStack=0;resizeParent=1;resizeParentMax=0;resizeLast=0;collapsible=1;marginBottom=0;whiteSpace=wrap;html=1;" vertex="1" parent="1">
          <mxGeometry x="1540" y="360" width="140" height="156" as="geometry" />
        </mxCell>
        <mxCell id="sFR_5gGPYLs7CGGtgTTj-119" value="- id: int" style="text;strokeColor=none;fillColor=none;align=left;verticalAlign=top;spacingLeft=4;spacingRight=4;overflow=hidden;rotatable=0;points=[[0,0.5],[1,0.5]];portConstraint=eastwest;whiteSpace=wrap;html=1;" vertex="1" parent="sFR_5gGPYLs7CGGtgTTj-118">
          <mxGeometry y="26" width="140" height="26" as="geometry" />
        </mxCell>
        <mxCell id="sFR_5gGPYLs7CGGtgTTj-120" value="- title: string" style="text;strokeColor=none;fillColor=none;align=left;verticalAlign=top;spacingLeft=4;spacingRight=4;overflow=hidden;rotatable=0;points=[[0,0.5],[1,0.5]];portConstraint=eastwest;whiteSpace=wrap;html=1;" vertex="1" parent="sFR_5gGPYLs7CGGtgTTj-118">
          <mxGeometry y="52" width="140" height="26" as="geometry" />
        </mxCell>
        <mxCell id="sFR_5gGPYLs7CGGtgTTj-121" value="- description: string" style="text;strokeColor=none;fillColor=none;align=left;verticalAlign=top;spacingLeft=4;spacingRight=4;overflow=hidden;rotatable=0;points=[[0,0.5],[1,0.5]];portConstraint=eastwest;whiteSpace=wrap;html=1;" vertex="1" parent="sFR_5gGPYLs7CGGtgTTj-118">
          <mxGeometry y="78" width="140" height="26" as="geometry" />
        </mxCell>
        <mxCell id="sFR_5gGPYLs7CGGtgTTj-122" value="- duration: int" style="text;strokeColor=none;fillColor=none;align=left;verticalAlign=top;spacingLeft=4;spacingRight=4;overflow=hidden;rotatable=0;points=[[0,0.5],[1,0.5]];portConstraint=eastwest;whiteSpace=wrap;html=1;" vertex="1" parent="sFR_5gGPYLs7CGGtgTTj-118">
          <mxGeometry y="104" width="140" height="26" as="geometry" />
        </mxCell>
        <mxCell id="sFR_5gGPYLs7CGGtgTTj-123" value="- EpisodNum: int" style="text;strokeColor=none;fillColor=none;align=left;verticalAlign=top;spacingLeft=4;spacingRight=4;overflow=hidden;rotatable=0;points=[[0,0.5],[1,0.5]];portConstraint=eastwest;whiteSpace=wrap;html=1;" vertex="1" parent="sFR_5gGPYLs7CGGtgTTj-118">
          <mxGeometry y="130" width="140" height="26" as="geometry" />
        </mxCell>
        <mxCell id="sFR_5gGPYLs7CGGtgTTj-124" value="sd system de gestion de site Movie Mingle" style="shape=umlFrame;whiteSpace=wrap;html=1;pointerEvents=0;width=240;height=44;" vertex="1" parent="1">
          <mxGeometry x="800" y="955" width="1080" height="1765" as="geometry" />
        </mxCell>
        <mxCell id="sFR_5gGPYLs7CGGtgTTj-125" value=":user" style="shape=umlLifeline;perimeter=lifelinePerimeter;whiteSpace=wrap;html=1;container=1;dropTarget=0;collapsible=0;recursiveResize=0;outlineConnect=0;portConstraint=eastwest;newEdgeStyle={&quot;curved&quot;:0,&quot;rounded&quot;:0};" vertex="1" parent="1">
          <mxGeometry x="909" y="1039" width="100" height="1641" as="geometry" />
        </mxCell>
        <mxCell id="sFR_5gGPYLs7CGGtgTTj-126" value=":system" style="shape=umlLifeline;perimeter=lifelinePerimeter;whiteSpace=wrap;html=1;container=1;dropTarget=0;collapsible=0;recursiveResize=0;outlineConnect=0;portConstraint=eastwest;newEdgeStyle={&quot;curved&quot;:0,&quot;rounded&quot;:0};" vertex="1" parent="1">
          <mxGeometry x="1308" y="1036" width="100" height="1644" as="geometry" />
        </mxCell>
        <mxCell id="sFR_5gGPYLs7CGGtgTTj-127" value="" style="endArrow=open;startArrow=none;endFill=0;startFill=0;endSize=8;html=1;verticalAlign=bottom;labelBackgroundColor=none;strokeWidth=1;rounded=0;" edge="1" parent="1">
          <mxGeometry width="160" relative="1" as="geometry">
            <mxPoint x="960" y="1159" as="sourcePoint" />
            <mxPoint x="1357.5000000000002" y="1159" as="targetPoint" />
            <Array as="points">
              <mxPoint x="1050" y="1159" />
            </Array>
          </mxGeometry>
        </mxCell>
        <mxCell id="sFR_5gGPYLs7CGGtgTTj-128" value="register" style="edgeLabel;html=1;align=center;verticalAlign=middle;resizable=0;points=[];" vertex="1" connectable="0" parent="sFR_5gGPYLs7CGGtgTTj-127">
          <mxGeometry x="-0.0594" y="2" relative="1" as="geometry">
            <mxPoint y="-8" as="offset" />
          </mxGeometry>
        </mxCell>
        <mxCell id="sFR_5gGPYLs7CGGtgTTj-129" value="" style="html=1;points=[[0,0,0,0,5],[0,1,0,0,-5],[1,0,0,0,5],[1,1,0,0,-5]];perimeter=orthogonalPerimeter;outlineConnect=0;targetShapes=umlLifeline;portConstraint=eastwest;newEdgeStyle={&quot;curved&quot;:0,&quot;rounded&quot;:0};" vertex="1" parent="1">
          <mxGeometry x="1355" y="1179" width="10" height="40" as="geometry" />
        </mxCell>
        <mxCell id="sFR_5gGPYLs7CGGtgTTj-130" value="" style="html=1;align=left;spacingLeft=2;endArrow=block;rounded=0;edgeStyle=orthogonalEdgeStyle;curved=0;rounded=0;" edge="1" target="sFR_5gGPYLs7CGGtgTTj-129" parent="1">
          <mxGeometry x="-0.0588" y="10" relative="1" as="geometry">
            <mxPoint x="1360" y="1159" as="sourcePoint" />
            <Array as="points">
              <mxPoint x="1390" y="1189" />
            </Array>
            <mxPoint as="offset" />
          </mxGeometry>
        </mxCell>
        <mxCell id="sFR_5gGPYLs7CGGtgTTj-131" value="registered succesfully&lt;br&gt;" style="html=1;verticalAlign=bottom;endArrow=open;dashed=1;endSize=8;curved=0;rounded=0;" edge="1" parent="1">
          <mxGeometry relative="1" as="geometry">
            <mxPoint x="1357" y="1255" as="sourcePoint" />
            <mxPoint x="958.3235294117646" y="1255" as="targetPoint" />
          </mxGeometry>
        </mxCell>
        <mxCell id="sFR_5gGPYLs7CGGtgTTj-133" value="send login page" style="html=1;verticalAlign=bottom;endArrow=open;dashed=1;endSize=8;curved=0;rounded=0;" edge="1" parent="1">
          <mxGeometry relative="1" as="geometry">
            <mxPoint x="1357" y="1280" as="sourcePoint" />
            <mxPoint x="959" y="1280" as="targetPoint" />
          </mxGeometry>
        </mxCell>
        <mxCell id="sFR_5gGPYLs7CGGtgTTj-134" value="" style="endArrow=open;startArrow=none;endFill=0;startFill=0;endSize=8;html=1;verticalAlign=bottom;labelBackgroundColor=none;strokeWidth=1;rounded=0;" edge="1" parent="1">
          <mxGeometry width="160" relative="1" as="geometry">
            <mxPoint x="960" y="1319" as="sourcePoint" />
            <mxPoint x="1357.5000000000002" y="1319" as="targetPoint" />
            <Array as="points">
              <mxPoint x="1050" y="1319" />
            </Array>
          </mxGeometry>
        </mxCell>
        <mxCell id="sFR_5gGPYLs7CGGtgTTj-135" value="Enter Email and password" style="edgeLabel;html=1;align=center;verticalAlign=middle;resizable=0;points=[];" vertex="1" connectable="0" parent="sFR_5gGPYLs7CGGtgTTj-134">
          <mxGeometry x="-0.0594" y="2" relative="1" as="geometry">
            <mxPoint y="-8" as="offset" />
          </mxGeometry>
        </mxCell>
        <mxCell id="sFR_5gGPYLs7CGGtgTTj-138" value="" style="html=1;points=[[0,0,0,0,5],[0,1,0,0,-5],[1,0,0,0,5],[1,1,0,0,-5]];perimeter=orthogonalPerimeter;outlineConnect=0;targetShapes=umlLifeline;portConstraint=eastwest;newEdgeStyle={&quot;curved&quot;:0,&quot;rounded&quot;:0};" vertex="1" parent="1">
          <mxGeometry x="1355" y="1340" width="10" height="40" as="geometry" />
        </mxCell>
        <mxCell id="sFR_5gGPYLs7CGGtgTTj-139" value="" style="html=1;align=left;spacingLeft=2;endArrow=block;rounded=0;edgeStyle=orthogonalEdgeStyle;curved=0;rounded=0;" edge="1" target="sFR_5gGPYLs7CGGtgTTj-138" parent="1">
          <mxGeometry relative="1" as="geometry">
            <mxPoint x="1360" y="1320" as="sourcePoint" />
            <Array as="points">
              <mxPoint x="1390" y="1350" />
            </Array>
          </mxGeometry>
        </mxCell>
        <mxCell id="sFR_5gGPYLs7CGGtgTTj-140" value="" style="html=1;verticalAlign=bottom;endArrow=open;dashed=1;endSize=8;curved=0;rounded=0;" edge="1" parent="1">
          <mxGeometry relative="1" as="geometry">
            <mxPoint x="1357" y="1423" as="sourcePoint" />
            <mxPoint x="959" y="1423" as="targetPoint" />
          </mxGeometry>
        </mxCell>
        <mxCell id="sFR_5gGPYLs7CGGtgTTj-141" value="Interaction heading" style="shape=umlFrame;whiteSpace=wrap;html=1;pointerEvents=0;recursiveResize=0;container=1;collapsible=0;width=170;" vertex="1" parent="1">
          <mxGeometry x="880" y="1440" width="880" height="240" as="geometry" />
        </mxCell>
        <mxCell id="sFR_5gGPYLs7CGGtgTTj-142" value="[Email and password&amp;nbsp; are valid]" style="text;html=1;" vertex="1" parent="sFR_5gGPYLs7CGGtgTTj-141">
          <mxGeometry width="160" height="20" relative="1" as="geometry">
            <mxPoint x="20" y="40" as="offset" />
          </mxGeometry>
        </mxCell>
        <mxCell id="sFR_5gGPYLs7CGGtgTTj-143" value="[else]" style="line;strokeWidth=1;dashed=1;labelPosition=center;verticalLabelPosition=bottom;align=left;verticalAlign=top;spacingLeft=20;spacingTop=15;html=1;whiteSpace=wrap;" vertex="1" parent="sFR_5gGPYLs7CGGtgTTj-141">
          <mxGeometry y="114" width="880" height="10" as="geometry" />
        </mxCell>
        <mxCell id="sFR_5gGPYLs7CGGtgTTj-144" value="" style="html=1;verticalAlign=bottom;endArrow=open;dashed=1;endSize=8;curved=0;rounded=0;" edge="1" parent="1">
          <mxGeometry relative="1" as="geometry">
            <mxPoint x="1357" y="1519" as="sourcePoint" />
            <mxPoint x="959" y="1519" as="targetPoint" />
          </mxGeometry>
        </mxCell>
        <mxCell id="sFR_5gGPYLs7CGGtgTTj-146" value="Invalid Credentials" style="edgeLabel;html=1;align=center;verticalAlign=middle;resizable=0;points=[];" vertex="1" connectable="0" parent="sFR_5gGPYLs7CGGtgTTj-144">
          <mxGeometry x="0.1075" y="1" relative="1" as="geometry">
            <mxPoint x="3" y="-10" as="offset" />
          </mxGeometry>
        </mxCell>
        <mxCell id="sFR_5gGPYLs7CGGtgTTj-147" value="" style="html=1;verticalAlign=bottom;endArrow=open;dashed=1;endSize=8;curved=0;rounded=0;" edge="1" parent="1">
          <mxGeometry relative="1" as="geometry">
            <mxPoint x="1357" y="1599" as="sourcePoint" />
            <mxPoint x="959" y="1599" as="targetPoint" />
          </mxGeometry>
        </mxCell>
        <mxCell id="sFR_5gGPYLs7CGGtgTTj-148" value="Logged in successefully&amp;nbsp;" style="edgeLabel;html=1;align=center;verticalAlign=middle;resizable=0;points=[];" vertex="1" connectable="0" parent="sFR_5gGPYLs7CGGtgTTj-147">
          <mxGeometry x="0.1075" y="1" relative="1" as="geometry">
            <mxPoint x="3" y="-10" as="offset" />
          </mxGeometry>
        </mxCell>
        <mxCell id="sFR_5gGPYLs7CGGtgTTj-149" value="" style="html=1;verticalAlign=bottom;endArrow=open;dashed=1;endSize=8;curved=0;rounded=0;" edge="1" parent="1">
          <mxGeometry relative="1" as="geometry">
            <mxPoint x="1358" y="1640" as="sourcePoint" />
            <mxPoint x="960" y="1640" as="targetPoint" />
          </mxGeometry>
        </mxCell>
        <mxCell id="sFR_5gGPYLs7CGGtgTTj-150" value="return Dashboard page to user" style="edgeLabel;html=1;align=center;verticalAlign=middle;resizable=0;points=[];" vertex="1" connectable="0" parent="sFR_5gGPYLs7CGGtgTTj-149">
          <mxGeometry x="0.1075" y="1" relative="1" as="geometry">
            <mxPoint x="3" y="-10" as="offset" />
          </mxGeometry>
        </mxCell>
        <mxCell id="sFR_5gGPYLs7CGGtgTTj-151" value="" style="endArrow=open;startArrow=none;endFill=0;startFill=0;endSize=8;html=1;verticalAlign=bottom;labelBackgroundColor=none;strokeWidth=1;rounded=0;" edge="1" parent="1">
          <mxGeometry width="160" relative="1" as="geometry">
            <mxPoint x="961" y="1718" as="sourcePoint" />
            <mxPoint x="1358.5000000000002" y="1718" as="targetPoint" />
            <Array as="points">
              <mxPoint x="1051" y="1718" />
            </Array>
          </mxGeometry>
        </mxCell>
        <mxCell id="sFR_5gGPYLs7CGGtgTTj-152" value="add a film to favorite" style="edgeLabel;html=1;align=center;verticalAlign=middle;resizable=0;points=[];" vertex="1" connectable="0" parent="sFR_5gGPYLs7CGGtgTTj-151">
          <mxGeometry x="-0.0594" y="2" relative="1" as="geometry">
            <mxPoint y="-8" as="offset" />
          </mxGeometry>
        </mxCell>
        <mxCell id="sFR_5gGPYLs7CGGtgTTj-153" value="" style="html=1;points=[[0,0,0,0,5],[0,1,0,0,-5],[1,0,0,0,5],[1,1,0,0,-5]];perimeter=orthogonalPerimeter;outlineConnect=0;targetShapes=umlLifeline;portConstraint=eastwest;newEdgeStyle={&quot;curved&quot;:0,&quot;rounded&quot;:0};" vertex="1" parent="1">
          <mxGeometry x="1354" y="1739" width="10" height="40" as="geometry" />
        </mxCell>
        <mxCell id="sFR_5gGPYLs7CGGtgTTj-154" value="" style="html=1;align=left;spacingLeft=2;endArrow=block;rounded=0;edgeStyle=orthogonalEdgeStyle;curved=0;rounded=0;" edge="1" target="sFR_5gGPYLs7CGGtgTTj-153" parent="1">
          <mxGeometry relative="1" as="geometry">
            <mxPoint x="1359" y="1719" as="sourcePoint" />
            <Array as="points">
              <mxPoint x="1389" y="1749" />
            </Array>
          </mxGeometry>
        </mxCell>
        <mxCell id="sFR_5gGPYLs7CGGtgTTj-155" value="" style="html=1;verticalAlign=bottom;endArrow=open;dashed=1;endSize=8;curved=0;rounded=0;" edge="1" parent="1">
          <mxGeometry relative="1" as="geometry">
            <mxPoint x="1357.5" y="1838" as="sourcePoint" />
            <mxPoint x="959" y="1838" as="targetPoint" />
          </mxGeometry>
        </mxCell>
        <mxCell id="sFR_5gGPYLs7CGGtgTTj-156" value="Added successefully" style="edgeLabel;html=1;align=center;verticalAlign=middle;resizable=0;points=[];" vertex="1" connectable="0" parent="sFR_5gGPYLs7CGGtgTTj-155">
          <mxGeometry x="0.1075" y="1" relative="1" as="geometry">
            <mxPoint x="3" y="-10" as="offset" />
          </mxGeometry>
        </mxCell>
        <mxCell id="sFR_5gGPYLs7CGGtgTTj-157" value="" style="endArrow=open;startArrow=none;endFill=0;startFill=0;endSize=8;html=1;verticalAlign=bottom;labelBackgroundColor=none;strokeWidth=1;rounded=0;" edge="1" parent="1">
          <mxGeometry width="160" relative="1" as="geometry">
            <mxPoint x="960" y="1879" as="sourcePoint" />
            <mxPoint x="1357.5000000000002" y="1879" as="targetPoint" />
            <Array as="points">
              <mxPoint x="1050" y="1879" />
            </Array>
          </mxGeometry>
        </mxCell>
        <mxCell id="sFR_5gGPYLs7CGGtgTTj-158" value="click on Edit film button&amp;nbsp;&amp;nbsp;" style="edgeLabel;html=1;align=center;verticalAlign=middle;resizable=0;points=[];" vertex="1" connectable="0" parent="sFR_5gGPYLs7CGGtgTTj-157">
          <mxGeometry x="-0.0594" y="2" relative="1" as="geometry">
            <mxPoint y="-8" as="offset" />
          </mxGeometry>
        </mxCell>
        <mxCell id="sFR_5gGPYLs7CGGtgTTj-159" value="" style="html=1;verticalAlign=bottom;endArrow=open;dashed=1;endSize=8;curved=0;rounded=0;" edge="1" parent="1">
          <mxGeometry relative="1" as="geometry">
            <mxPoint x="1357" y="1919" as="sourcePoint" />
            <mxPoint x="958" y="1919" as="targetPoint" />
          </mxGeometry>
        </mxCell>
        <mxCell id="sFR_5gGPYLs7CGGtgTTj-160" value="return a model&amp;nbsp; to user" style="edgeLabel;html=1;align=center;verticalAlign=middle;resizable=0;points=[];" vertex="1" connectable="0" parent="sFR_5gGPYLs7CGGtgTTj-159">
          <mxGeometry x="0.1075" y="1" relative="1" as="geometry">
            <mxPoint x="3" y="-10" as="offset" />
          </mxGeometry>
        </mxCell>
        <mxCell id="sFR_5gGPYLs7CGGtgTTj-161" value="" style="endArrow=open;startArrow=none;endFill=0;startFill=0;endSize=8;html=1;verticalAlign=bottom;labelBackgroundColor=none;strokeWidth=1;rounded=0;" edge="1" parent="1">
          <mxGeometry width="160" relative="1" as="geometry">
            <mxPoint x="960" y="1958" as="sourcePoint" />
            <mxPoint x="1357.5000000000002" y="1958" as="targetPoint" />
            <Array as="points">
              <mxPoint x="1050" y="1958" />
            </Array>
          </mxGeometry>
        </mxCell>
        <mxCell id="sFR_5gGPYLs7CGGtgTTj-162" value="Enter update data" style="edgeLabel;html=1;align=center;verticalAlign=middle;resizable=0;points=[];" vertex="1" connectable="0" parent="sFR_5gGPYLs7CGGtgTTj-161">
          <mxGeometry x="-0.0594" y="2" relative="1" as="geometry">
            <mxPoint y="-8" as="offset" />
          </mxGeometry>
        </mxCell>
        <mxCell id="sFR_5gGPYLs7CGGtgTTj-163" value="" style="html=1;verticalAlign=bottom;endArrow=open;dashed=1;endSize=8;curved=0;rounded=0;" edge="1" parent="1">
          <mxGeometry relative="1" as="geometry">
            <mxPoint x="1356" y="2078" as="sourcePoint" />
            <mxPoint x="957" y="2078" as="targetPoint" />
          </mxGeometry>
        </mxCell>
        <mxCell id="sFR_5gGPYLs7CGGtgTTj-164" value="Updated successefully" style="edgeLabel;html=1;align=center;verticalAlign=middle;resizable=0;points=[];" vertex="1" connectable="0" parent="sFR_5gGPYLs7CGGtgTTj-163">
          <mxGeometry x="0.1075" y="1" relative="1" as="geometry">
            <mxPoint x="3" y="-10" as="offset" />
          </mxGeometry>
        </mxCell>
        <mxCell id="sFR_5gGPYLs7CGGtgTTj-166" value="" style="html=1;points=[[0,0,0,0,5],[0,1,0,0,-5],[1,0,0,0,5],[1,1,0,0,-5]];perimeter=orthogonalPerimeter;outlineConnect=0;targetShapes=umlLifeline;portConstraint=eastwest;newEdgeStyle={&quot;curved&quot;:0,&quot;rounded&quot;:0};" vertex="1" parent="1">
          <mxGeometry x="1354" y="1979" width="10" height="40" as="geometry" />
        </mxCell>
        <mxCell id="sFR_5gGPYLs7CGGtgTTj-167" value="" style="html=1;align=left;spacingLeft=2;endArrow=block;rounded=0;edgeStyle=orthogonalEdgeStyle;curved=0;rounded=0;" edge="1" target="sFR_5gGPYLs7CGGtgTTj-166" parent="1">
          <mxGeometry relative="1" as="geometry">
            <mxPoint x="1359" y="1959" as="sourcePoint" />
            <Array as="points">
              <mxPoint x="1389" y="1989" />
            </Array>
          </mxGeometry>
        </mxCell>
        <mxCell id="sFR_5gGPYLs7CGGtgTTj-168" value="" style="endArrow=open;startArrow=none;endFill=0;startFill=0;endSize=8;html=1;verticalAlign=bottom;labelBackgroundColor=none;strokeWidth=1;rounded=0;" edge="1" parent="1">
          <mxGeometry width="160" relative="1" as="geometry">
            <mxPoint x="960" y="2118" as="sourcePoint" />
            <mxPoint x="1357.5000000000002" y="2118" as="targetPoint" />
            <Array as="points">
              <mxPoint x="1050" y="2118" />
            </Array>
          </mxGeometry>
        </mxCell>
        <mxCell id="sFR_5gGPYLs7CGGtgTTj-169" value="click on delet film from list button&amp;nbsp;&amp;nbsp;" style="edgeLabel;html=1;align=center;verticalAlign=middle;resizable=0;points=[];" vertex="1" connectable="0" parent="sFR_5gGPYLs7CGGtgTTj-168">
          <mxGeometry x="-0.0594" y="2" relative="1" as="geometry">
            <mxPoint y="-8" as="offset" />
          </mxGeometry>
        </mxCell>
        <mxCell id="sFR_5gGPYLs7CGGtgTTj-172" value="" style="html=1;points=[[0,0,0,0,5],[0,1,0,0,-5],[1,0,0,0,5],[1,1,0,0,-5]];perimeter=orthogonalPerimeter;outlineConnect=0;targetShapes=umlLifeline;portConstraint=eastwest;newEdgeStyle={&quot;curved&quot;:0,&quot;rounded&quot;:0};" vertex="1" parent="1">
          <mxGeometry x="1353" y="2139" width="10" height="40" as="geometry" />
        </mxCell>
        <mxCell id="sFR_5gGPYLs7CGGtgTTj-173" value="" style="html=1;align=left;spacingLeft=2;endArrow=block;rounded=0;edgeStyle=orthogonalEdgeStyle;curved=0;rounded=0;" edge="1" target="sFR_5gGPYLs7CGGtgTTj-172" parent="1">
          <mxGeometry relative="1" as="geometry">
            <mxPoint x="1358" y="2119" as="sourcePoint" />
            <Array as="points">
              <mxPoint x="1388" y="2149" />
            </Array>
          </mxGeometry>
        </mxCell>
        <mxCell id="sFR_5gGPYLs7CGGtgTTj-174" value="" style="html=1;verticalAlign=bottom;endArrow=open;dashed=1;endSize=8;curved=0;rounded=0;" edge="1" parent="1">
          <mxGeometry relative="1" as="geometry">
            <mxPoint x="1358" y="2238" as="sourcePoint" />
            <mxPoint x="959" y="2238" as="targetPoint" />
          </mxGeometry>
        </mxCell>
        <mxCell id="sFR_5gGPYLs7CGGtgTTj-175" value="deleted successefully" style="edgeLabel;html=1;align=center;verticalAlign=middle;resizable=0;points=[];" vertex="1" connectable="0" parent="sFR_5gGPYLs7CGGtgTTj-174">
          <mxGeometry x="0.1075" y="1" relative="1" as="geometry">
            <mxPoint x="6" y="-10" as="offset" />
          </mxGeometry>
        </mxCell>
        <mxCell id="sFR_5gGPYLs7CGGtgTTj-176" value="" style="html=1;points=[[0,0,0,0,5],[0,1,0,0,-5],[1,0,0,0,5],[1,1,0,0,-5]];perimeter=orthogonalPerimeter;outlineConnect=0;targetShapes=umlLifeline;portConstraint=eastwest;newEdgeStyle={&quot;curved&quot;:0,&quot;rounded&quot;:0};" vertex="1" parent="1">
          <mxGeometry x="1355" y="1619" width="10" height="40" as="geometry" />
        </mxCell>
        <mxCell id="sFR_5gGPYLs7CGGtgTTj-177" value="" style="html=1;align=left;spacingLeft=2;endArrow=block;rounded=0;edgeStyle=orthogonalEdgeStyle;curved=0;rounded=0;" edge="1" target="sFR_5gGPYLs7CGGtgTTj-176" parent="1">
          <mxGeometry relative="1" as="geometry">
            <mxPoint x="1360" y="1599" as="sourcePoint" />
            <Array as="points">
              <mxPoint x="1390" y="1629" />
            </Array>
          </mxGeometry>
        </mxCell>
        <mxCell id="sFR_5gGPYLs7CGGtgTTj-178" value="Interaction heading" style="shape=umlFrame;whiteSpace=wrap;html=1;pointerEvents=0;recursiveResize=0;container=1;collapsible=0;width=170;" vertex="1" parent="1">
          <mxGeometry x="880" y="2359" width="880" height="261" as="geometry" />
        </mxCell>
        <mxCell id="sFR_5gGPYLs7CGGtgTTj-179" value="[Cancel]" style="text;html=1;" vertex="1" parent="sFR_5gGPYLs7CGGtgTTj-178">
          <mxGeometry width="160" height="20" relative="1" as="geometry">
            <mxPoint x="20" y="40" as="offset" />
          </mxGeometry>
        </mxCell>
        <mxCell id="sFR_5gGPYLs7CGGtgTTj-180" value="[else]" style="line;strokeWidth=1;dashed=1;labelPosition=center;verticalLabelPosition=bottom;align=left;verticalAlign=top;spacingLeft=20;spacingTop=15;html=1;whiteSpace=wrap;" vertex="1" parent="sFR_5gGPYLs7CGGtgTTj-178">
          <mxGeometry y="114" width="800" height="10" as="geometry" />
        </mxCell>
        <mxCell id="sFR_5gGPYLs7CGGtgTTj-181" value="" style="endArrow=open;startArrow=none;endFill=0;startFill=0;endSize=8;html=1;verticalAlign=bottom;labelBackgroundColor=none;strokeWidth=1;rounded=0;" edge="1" parent="1">
          <mxGeometry width="160" relative="1" as="geometry">
            <mxPoint x="961" y="2279" as="sourcePoint" />
            <mxPoint x="1358.5000000000002" y="2279" as="targetPoint" />
            <Array as="points">
              <mxPoint x="1051" y="2279" />
            </Array>
          </mxGeometry>
        </mxCell>
        <mxCell id="sFR_5gGPYLs7CGGtgTTj-182" value="User click on delete account button" style="edgeLabel;html=1;align=center;verticalAlign=middle;resizable=0;points=[];" vertex="1" connectable="0" parent="sFR_5gGPYLs7CGGtgTTj-181">
          <mxGeometry x="-0.0594" y="2" relative="1" as="geometry">
            <mxPoint y="-8" as="offset" />
          </mxGeometry>
        </mxCell>
        <mxCell id="sFR_5gGPYLs7CGGtgTTj-183" value="" style="html=1;verticalAlign=bottom;endArrow=open;dashed=1;endSize=8;curved=0;rounded=0;" edge="1" parent="1">
          <mxGeometry relative="1" as="geometry">
            <mxPoint x="1358" y="2318" as="sourcePoint" />
            <mxPoint x="959" y="2318" as="targetPoint" />
          </mxGeometry>
        </mxCell>
        <mxCell id="sFR_5gGPYLs7CGGtgTTj-184" value="Are you sure you want to delete your account" style="edgeLabel;html=1;align=center;verticalAlign=middle;resizable=0;points=[];" vertex="1" connectable="0" parent="sFR_5gGPYLs7CGGtgTTj-183">
          <mxGeometry x="0.1075" y="1" relative="1" as="geometry">
            <mxPoint x="6" y="-10" as="offset" />
          </mxGeometry>
        </mxCell>
        <mxCell id="sFR_5gGPYLs7CGGtgTTj-185" value="" style="html=1;verticalAlign=bottom;endArrow=open;dashed=1;endSize=8;curved=0;rounded=0;" edge="1" parent="1">
          <mxGeometry relative="1" as="geometry">
            <mxPoint x="1358" y="2439" as="sourcePoint" />
            <mxPoint x="959" y="2439" as="targetPoint" />
          </mxGeometry>
        </mxCell>
        <mxCell id="sFR_5gGPYLs7CGGtgTTj-186" value="return Dashboard page&amp;nbsp;" style="edgeLabel;html=1;align=center;verticalAlign=middle;resizable=0;points=[];" vertex="1" connectable="0" parent="sFR_5gGPYLs7CGGtgTTj-185">
          <mxGeometry x="0.1075" y="1" relative="1" as="geometry">
            <mxPoint x="6" y="-10" as="offset" />
          </mxGeometry>
        </mxCell>
        <mxCell id="sFR_5gGPYLs7CGGtgTTj-189" value="" style="html=1;points=[[0,0,0,0,5],[0,1,0,0,-5],[1,0,0,0,5],[1,1,0,0,-5]];perimeter=orthogonalPerimeter;outlineConnect=0;targetShapes=umlLifeline;portConstraint=eastwest;newEdgeStyle={&quot;curved&quot;:0,&quot;rounded&quot;:0};" vertex="1" parent="1">
          <mxGeometry x="1355" y="2516" width="10" height="40" as="geometry" />
        </mxCell>
        <mxCell id="sFR_5gGPYLs7CGGtgTTj-190" value="" style="html=1;align=left;spacingLeft=2;endArrow=block;rounded=0;edgeStyle=orthogonalEdgeStyle;curved=0;rounded=0;" edge="1" target="sFR_5gGPYLs7CGGtgTTj-189" parent="1">
          <mxGeometry relative="1" as="geometry">
            <mxPoint x="1360" y="2496" as="sourcePoint" />
            <Array as="points">
              <mxPoint x="1390" y="2526" />
            </Array>
          </mxGeometry>
        </mxCell>
        <mxCell id="sFR_5gGPYLs7CGGtgTTj-191" value="" style="html=1;verticalAlign=bottom;endArrow=open;dashed=1;endSize=8;curved=0;rounded=0;" edge="1" parent="1">
          <mxGeometry relative="1" as="geometry">
            <mxPoint x="1358" y="2593" as="sourcePoint" />
            <mxPoint x="959" y="2593" as="targetPoint" />
          </mxGeometry>
        </mxCell>
        <mxCell id="sFR_5gGPYLs7CGGtgTTj-192" value="return Home page&amp;nbsp;" style="edgeLabel;html=1;align=center;verticalAlign=middle;resizable=0;points=[];" vertex="1" connectable="0" parent="sFR_5gGPYLs7CGGtgTTj-191">
          <mxGeometry x="0.1075" y="1" relative="1" as="geometry">
            <mxPoint x="6" y="-10" as="offset" />
          </mxGeometry>
        </mxCell>
        <mxCell id="sFR_5gGPYLs7CGGtgTTj-193" value=":DB" style="shape=umlLifeline;perimeter=lifelinePerimeter;whiteSpace=wrap;html=1;container=1;dropTarget=0;collapsible=0;recursiveResize=0;outlineConnect=0;portConstraint=eastwest;newEdgeStyle={&quot;curved&quot;:0,&quot;rounded&quot;:0};" vertex="1" parent="1">
          <mxGeometry x="1628" y="1037" width="100" height="1643" as="geometry" />
        </mxCell>
        <mxCell id="sFR_5gGPYLs7CGGtgTTj-194" value="" style="endArrow=open;startArrow=none;endFill=0;startFill=0;endSize=8;html=1;verticalAlign=bottom;labelBackgroundColor=none;strokeWidth=1;rounded=0;" edge="1" parent="1">
          <mxGeometry width="160" relative="1" as="geometry">
            <mxPoint x="1360" y="1228" as="sourcePoint" />
            <mxPoint x="1678.5000000000002" y="1228" as="targetPoint" />
            <Array as="points">
              <mxPoint x="1371" y="1228" />
            </Array>
          </mxGeometry>
        </mxCell>
        <mxCell id="sFR_5gGPYLs7CGGtgTTj-195" value="Store users login data&amp;nbsp;" style="edgeLabel;html=1;align=center;verticalAlign=middle;resizable=0;points=[];" vertex="1" connectable="0" parent="sFR_5gGPYLs7CGGtgTTj-194">
          <mxGeometry x="-0.0594" y="2" relative="1" as="geometry">
            <mxPoint y="-8" as="offset" />
          </mxGeometry>
        </mxCell>
        <mxCell id="sFR_5gGPYLs7CGGtgTTj-196" value="" style="endArrow=open;startArrow=none;endFill=0;startFill=0;endSize=8;html=1;verticalAlign=bottom;labelBackgroundColor=none;strokeWidth=1;rounded=0;" edge="1" parent="1">
          <mxGeometry width="160" relative="1" as="geometry">
            <mxPoint x="1360" y="1399" as="sourcePoint" />
            <mxPoint x="1678.5000000000002" y="1399" as="targetPoint" />
            <Array as="points">
              <mxPoint x="1371" y="1399" />
            </Array>
          </mxGeometry>
        </mxCell>
        <mxCell id="sFR_5gGPYLs7CGGtgTTj-197" value="Validate users Email and password" style="edgeLabel;html=1;align=center;verticalAlign=middle;resizable=0;points=[];" vertex="1" connectable="0" parent="sFR_5gGPYLs7CGGtgTTj-196">
          <mxGeometry x="-0.0594" y="2" relative="1" as="geometry">
            <mxPoint y="-8" as="offset" />
          </mxGeometry>
        </mxCell>
        <mxCell id="sFR_5gGPYLs7CGGtgTTj-201" value="" style="endArrow=open;startArrow=none;endFill=0;startFill=0;endSize=8;html=1;verticalAlign=bottom;labelBackgroundColor=none;strokeWidth=1;rounded=0;" edge="1" parent="1">
          <mxGeometry width="160" relative="1" as="geometry">
            <mxPoint x="1360" y="1798" as="sourcePoint" />
            <mxPoint x="1678.5000000000002" y="1798" as="targetPoint" />
            <Array as="points">
              <mxPoint x="1371" y="1798" />
            </Array>
          </mxGeometry>
        </mxCell>
        <mxCell id="sFR_5gGPYLs7CGGtgTTj-202" value="Insert film data&amp;nbsp;&amp;nbsp;" style="edgeLabel;html=1;align=center;verticalAlign=middle;resizable=0;points=[];" vertex="1" connectable="0" parent="sFR_5gGPYLs7CGGtgTTj-201">
          <mxGeometry x="-0.0594" y="2" relative="1" as="geometry">
            <mxPoint y="-8" as="offset" />
          </mxGeometry>
        </mxCell>
        <mxCell id="sFR_5gGPYLs7CGGtgTTj-203" value="" style="endArrow=open;startArrow=none;endFill=0;startFill=0;endSize=8;html=1;verticalAlign=bottom;labelBackgroundColor=none;strokeWidth=1;rounded=0;" edge="1" parent="1">
          <mxGeometry width="160" relative="1" as="geometry">
            <mxPoint x="1359" y="2038" as="sourcePoint" />
            <mxPoint x="1677.5000000000002" y="2038" as="targetPoint" />
            <Array as="points">
              <mxPoint x="1370" y="2038" />
            </Array>
          </mxGeometry>
        </mxCell>
        <mxCell id="sFR_5gGPYLs7CGGtgTTj-204" value="Update film data" style="edgeLabel;html=1;align=center;verticalAlign=middle;resizable=0;points=[];" vertex="1" connectable="0" parent="sFR_5gGPYLs7CGGtgTTj-203">
          <mxGeometry x="-0.0594" y="2" relative="1" as="geometry">
            <mxPoint y="-8" as="offset" />
          </mxGeometry>
        </mxCell>
        <mxCell id="sFR_5gGPYLs7CGGtgTTj-205" value="" style="endArrow=open;startArrow=none;endFill=0;startFill=0;endSize=8;html=1;verticalAlign=bottom;labelBackgroundColor=none;strokeWidth=1;rounded=0;" edge="1" parent="1">
          <mxGeometry width="160" relative="1" as="geometry">
            <mxPoint x="1359" y="2198" as="sourcePoint" />
            <mxPoint x="1677.5000000000002" y="2198" as="targetPoint" />
            <Array as="points">
              <mxPoint x="1370" y="2198" />
            </Array>
          </mxGeometry>
        </mxCell>
        <mxCell id="sFR_5gGPYLs7CGGtgTTj-206" value="delete film from db" style="edgeLabel;html=1;align=center;verticalAlign=middle;resizable=0;points=[];" vertex="1" connectable="0" parent="sFR_5gGPYLs7CGGtgTTj-205">
          <mxGeometry x="-0.0594" y="2" relative="1" as="geometry">
            <mxPoint y="-8" as="offset" />
          </mxGeometry>
        </mxCell>
        <mxCell id="sFR_5gGPYLs7CGGtgTTj-207" value="" style="endArrow=open;startArrow=none;endFill=0;startFill=0;endSize=8;html=1;verticalAlign=bottom;labelBackgroundColor=none;strokeWidth=1;rounded=0;" edge="1" parent="1">
          <mxGeometry width="160" relative="1" as="geometry">
            <mxPoint x="1359" y="2578" as="sourcePoint" />
            <mxPoint x="1677.5000000000002" y="2578" as="targetPoint" />
            <Array as="points">
              <mxPoint x="1370" y="2578" />
            </Array>
          </mxGeometry>
        </mxCell>
        <mxCell id="sFR_5gGPYLs7CGGtgTTj-208" value="delete login info of user" style="edgeLabel;html=1;align=center;verticalAlign=middle;resizable=0;points=[];" vertex="1" connectable="0" parent="sFR_5gGPYLs7CGGtgTTj-207">
          <mxGeometry x="-0.0594" y="2" relative="1" as="geometry">
            <mxPoint y="-8" as="offset" />
          </mxGeometry>
        </mxCell>
        <mxCell id="sFR_5gGPYLs7CGGtgTTj-209" value="" style="html=1;verticalAlign=bottom;endArrow=open;dashed=1;endSize=8;curved=0;rounded=0;entryX=0.52;entryY=0.127;entryDx=0;entryDy=0;entryPerimeter=0;" edge="1" parent="1">
          <mxGeometry relative="1" as="geometry">
            <mxPoint x="1678" y="1246" as="sourcePoint" />
            <mxPoint x="1360" y="1245.8680000000002" as="targetPoint" />
          </mxGeometry>
        </mxCell>
        <mxCell id="sFR_5gGPYLs7CGGtgTTj-210" value="" style="html=1;verticalAlign=bottom;endArrow=open;dashed=1;endSize=8;curved=0;rounded=0;entryX=0.52;entryY=0.127;entryDx=0;entryDy=0;entryPerimeter=0;" edge="1" parent="1">
          <mxGeometry relative="1" as="geometry">
            <mxPoint x="1677" y="1410" as="sourcePoint" />
            <mxPoint x="1359" y="1409.8680000000002" as="targetPoint" />
          </mxGeometry>
        </mxCell>
        <mxCell id="sFR_5gGPYLs7CGGtgTTj-211" value="" style="html=1;verticalAlign=bottom;endArrow=open;dashed=1;endSize=8;curved=0;rounded=0;entryX=0.52;entryY=0.127;entryDx=0;entryDy=0;entryPerimeter=0;" edge="1" parent="1">
          <mxGeometry relative="1" as="geometry">
            <mxPoint x="1675" y="1817" as="sourcePoint" />
            <mxPoint x="1357" y="1816.8680000000002" as="targetPoint" />
          </mxGeometry>
        </mxCell>
        <mxCell id="sFR_5gGPYLs7CGGtgTTj-212" value="" style="html=1;verticalAlign=bottom;endArrow=open;dashed=1;endSize=8;curved=0;rounded=0;entryX=0.52;entryY=0.127;entryDx=0;entryDy=0;entryPerimeter=0;" edge="1" parent="1">
          <mxGeometry relative="1" as="geometry">
            <mxPoint x="1676" y="2059" as="sourcePoint" />
            <mxPoint x="1358" y="2058.8680000000004" as="targetPoint" />
          </mxGeometry>
        </mxCell>
        <mxCell id="sFR_5gGPYLs7CGGtgTTj-213" value="" style="html=1;verticalAlign=bottom;endArrow=open;dashed=1;endSize=8;curved=0;rounded=0;entryX=0.52;entryY=0.127;entryDx=0;entryDy=0;entryPerimeter=0;" edge="1" parent="1">
          <mxGeometry relative="1" as="geometry">
            <mxPoint x="1676" y="2220" as="sourcePoint" />
            <mxPoint x="1358" y="2219.8680000000004" as="targetPoint" />
          </mxGeometry>
        </mxCell>
      </root>
    </mxGraphModel>
  </diagram>
</mxfile>
